<?xml version="1.0" encoding="UTF-8"?>
<svg xmlns="http://www.w3.org/2000/svg" width="32" height="32" viewBox="0 0 32 32">
  <style>
    .pan { fill: #4A2512; }
    .flame { fill: #FF9F1C; }
    .flame-inner { fill: #FFE0A3; }
  </style>
  <!-- Pan -->
  <path class="pan" d="M4,16 Q2,16 2,14 L2,10 Q2,8 4,8 L20,8 Q22,8 22,10 L22,14 Q22,16 20,16 Z"/>
  <path class="pan" d="M20,9 L24,6 Q25,5 26,6 L27,7 Q28,8 27,9 L23,12 Z"/>
  
  <!-- Flame -->
  <path class="flame" d="M10,7 Q12,2 14,7 Q16,12 12,12 Q8,12 10,7 Z"/>
  <path class="flame-inner" d="M11,8 Q12,4 13,8 Q14,11 12,11 Q10,11 11,8 Z"/>
  
  <!-- Heart shape in flame -->
  <path class="pan" d="M11,9 Q12,7 13,9 Q14,7 15,9 Q16,10 13,11 Q10,10 11,9 Z"/>
</svg>
